#!OML:ASF H:\Terrain\Walking\May29\JustinRory\Justin.ASF
:FULLY-SPECIFIED
:DEGREES
979
root 16.7301 9.86714 -6.692 -109.438 -86.5434 88.4803
lowerback 42.4542 4.15948 -0.638212
upperback 17.1589 1.97933 -1.30419
thorax -0.936066 -0.123585 -1.73018
lowerneck -13.9608 5.64299 -12.4416
upperneck 21.2571 11.3605 -4.76923
head 8.67511 3.6429 1.63007
rclavicle -2.28602e-014 1.80894e-014
rhumerus 21.6216 27.7156 -65.5497
rradius 70.4744
rwrist 12.1609
rhand 3.90021 16.7949
rfingers 7.12502
rthumb 29.3204 -10.9133
lclavicle -2.28602e-014 1.80894e-014
lhumerus 59.1223 -45.6836 45.3594
lradius 41.2038
lwrist -52.0126
lhand 12.5302 43.8771
lfingers 7.12502
lthumb 37.522 69.8048
rfemur -69.2965 -12.3944 14.9107
rtibia 74.2268
rfoot 18.4376 -0.0971264
rtoes 19.2426
lfemur -67.103 3.38718 -11.662
ltibia 73.3715
lfoot 18.204 0.728606
ltoes 21.9916
980
root 16.7307 9.85262 -6.69131 -111.116 -86.3567 90.0935
lowerback 42.5634 4.26894 -0.785944
upperback 17.1718 2.02848 -1.44784
thorax -0.949488 -0.104832 -1.82581
lowerneck -13.4688 5.70465 -12.126
upperneck 20.8792 11.3436 -5.21979
head 8.50399 3.65392 1.4063
rclavicle -3.23025e-015 -4.07509e-015
rhumerus 21.5451 27.6766 -65.699
rradius 70.4786
rwrist 12.6009
rhand 4.38133 15.7838
rfingers 7.12502
rthumb 29.7797 -11.8432
lclavicle -3.23025e-015 -4.07509e-015
lhumerus 60.3422 -46.0415 43.7027
lradius 41.1848
lwrist -51.5219
lhand 12.439 43.5939
lfingers 7.12502
lthumb 37.4358 69.5444
rfemur -69.3684 -12.2233 14.7823
rtibia 74.2815
rfoot 18.432 -0.0453108
rtoes 18.0584
lfemur -67.0747 3.59667 -11.8321
ltibia 73.3789
lfoot 18.2622 0.655358
ltoes 21.7934
981
root 16.7322 9.86129 -6.68728 -110.186 -86.5816 89.158
lowerback 42.4773 4.11348 -0.508838
upperback 17.2939 1.93047 -1.50447
thorax -0.7831 -0.137573 -1.99133
lowerneck -14.1637 5.64648 -12.6838
upperneck 21.5907 11.4759 -4.74722
head 8.81308 3.64146 1.69979
rclavicle -2.78299e-015 2.00773e-014
rhumerus 21.6723 27.7118 -65.6489
rradius 70.4545
rwrist 12.9462
rhand 4.21922 15.3294
rfingers 7.12502
rthumb 29.625 -12.3252
lclavicle -2.78299e-015 2.00773e-014
lhumerus 61.397 -46.157 42.5607
lradius 40.9151
lwrist -51.3894
lhand 12.6021 43.2455
lfingers 7.12502
lthumb 37.59 69.1552
rfemur -69.2666 -12.3877 14.9636
rtibia 74.2683
rfoot 18.3501 -0.23716
rtoes 17.9955
lfemur -67.0478 3.41518 -11.6293
ltibia 73.3474
lfoot 18.215 0.687906
ltoes 21.5743
982
root 16.737 9.87397 -6.68605 -107.167 -86.3672 86.2188
lowerback 42.4072 4.06068 -0.692517
upperback 17.3323 1.78879 -1.64205
thorax -0.727055 -0.210077 -1.99332
lowerneck -14.6256 5.57572 -13.5291
upperneck 21.8713 11.5756 -4.26983
head 8.91765 3.63597 2.01623
rclavicle 1.50082e-014 -1.58034e-014
rhumerus 21.8215 27.8081 -65.6427
rradius 70.177
rwrist 13.1787
rhand 3.54505 15.6352
rfingers 7.12502
rthumb 28.9813 -12.1317
lclavicle 1.50082e-014 -1.58034e-014
lhumerus 62.5634 -46.2602 41.1386
lradius 40.7213
lwrist -50.8878
lhand 12.561 43.9039
lfingers 7.12502
lthumb 37.5511 69.8239
rfemur -69.3066 -12.5732 14.6696
rtibia 74.2488
rfoot 18.5022 -0.259659
rtoes 19.0973
lfemur -67.0173 2.88552 -11.7552
ltibia 73.293
lfoot 18.0965 1.08202
ltoes 21.0887
983
root 16.7372 9.8708 -6.68546 -106.851 -86.5166 85.9232
lowerback 42.3588 4.00725 -0.610488
upperback 17.3908 1.74364 -1.71421
thorax -0.646141 -0.225867 -2.0954
lowerneck -14.7318 5.56831 -13.5705
upperneck 21.7163 11.5964 -4.33168
head 8.88527 3.64707 2.00424
rclavicle -6.55989e-015 3.77691e-015
rhumerus 21.9707 27.8749 -65.6285
rradius 69.9728
rwrist 13.1823
rhand 3.04919 15.8926
rfingers 7.12502
rthumb 28.5076 -11.9547
lclavicle -6.55989e-015 3.77691e-015
lhumerus 63.1926 -46.4069 40.2123
lradius 40.7068
lwrist -50.7712
lhand 12.4881 44.7499
lfingers 7.12502
lthumb 37.4822 70.6882
rfemur -69.3163 -12.6105 14.8229
rtibia 74.2376
rfoot 18.5888 0.18554
rtoes 19.1014
lfemur -67.1023 2.7307 -11.5833
ltibia 73.3363
lfoot 18.1794 1.15222
ltoes 17.9787
984
root 16.7281 9.86131 -6.685 -108.724 -86.9219 87.8065
lowerback 42.2738 3.98743 -0.37075
upperback 17.4735 1.80304 -1.68022
thorax -0.523025 -0.188142 -2.20163
lowerneck -15.5212 5.53818 -13.4463
upperneck 22.357 11.7165 -4.19523
head 9.24591 3.64934 2.09282
rclavicle 1.16289e-014 -1.98785e-014
rhumerus 22.0991 27.9499 -65.4723
rradius 69.9795
rwrist 13.1319
rhand 2.7426 15.7649
rfingers 7.12502
rthumb 28.2146 -12.1312
lclavicle 1.16289e-014 -1.98785e-014
lhumerus 63.4634 -46.4619 39.9414
lradius 40.539
lwrist -51.0432
lhand 12.5369 44.5557
lfingers 7.12502
lthumb 37.5283 70.4817
rfemur -69.2941 -12.5681 15.3258
rtibia 74.2436
rfoot 18.3445 0.786158
rtoes 17.4502
lfemur -67.2802 2.96945 -11.2323
ltibia 73.4547
lfoot 18.2876 0.882574
ltoes 15.2074
985
root 16.7194 9.8595 -6.6815 -107.483 -86.7762 86.6169
lowerback 42.334 4.01809 -0.484741
upperback 17.411 1.7962 -1.79824
thorax -0.60954 -0.187807 -2.26648
lowerneck -16.2071 5.46094 -14.1072
upperneck 23.2102 11.8079 -3.41833
head 9.57815 3.63267 2.51128
rclavicle -1.66979e-014 -1.94809e-014
rhumerus 21.8795 27.9366 -65.508
rradius 70.0932
rwrist 13.2586
rhand 2.62747 15.5744
rfingers 7.12502
rthumb 28.1045 -12.3398
lclavicle -1.66979e-014 -1.94809e-014
lhumerus 64.0853 -46.6438 39.1833
lradius 40.3931
lwrist -50.8921
lhand 12.5821 44.0348
lfingers 7.12502
lthumb 37.5711 69.9494
rfemur -69.3904 -12.7053 15.2356
rtibia 74.2891
rfoot 18.1905 1.08191
rtoes 16.3185
lfemur -67.3799 3.08313 -11.5053
ltibia 73.5258
lfoot 18.2437 0.728551
ltoes 17.5129
986
root 16.7199 9.86375 -6.67758 -105.16 -86.5219 84.323
lowerback 42.4352 4.02681 -0.624955
upperback 17.3507 1.74476 -1.99122
thorax -0.705133 -0.206656 -2.38233
lowerneck -16.2032 5.3967 -14.8479
upperneck 23.3481 11.7646 -2.78741
head 9.54141 3.61494 2.83066
rclavicle -1.59028e-015 1.98785e-014
rhumerus 21.552 27.7841 -65.7391
rradius 70.2617
rwrist 13.5554
rhand 2.70034 15.398
rfingers 7.12502
rthumb 28.1742 -12.5048
lclavicle -1.59028e-015 1.98785e-014
lhumerus 64.9044 -46.846 38.1378
lradius 40.3206
lwrist -50.5978
lhand 12.5988 43.7055
lfingers 7.12502
lthumb 37.5869 69.616
rfemur -69.4983 -12.8865 14.9074
rtibia 74.3652
rfoot 18.4888 0.613519
rtoes 17.967
lfemur -67.3714 2.98871 -11.8619
ltibia 73.512
lfoot 18.1927 0.731905
ltoes 19.7732
987
root 16.7246 9.86693 -6.67665 -104.943 -86.5557 84.166
lowerback 42.3939 4.05446 -0.633741
upperback 17.3748 1.76625 -2.10515
thorax -0.663863 -0.189906 -2.50575
lowerneck -15.9016 5.46255 -14.6365
upperneck 22.9043 11.7387 -2.94319
head 9.34965 3.65357 2.71815
rclavicle 1.19271e-015 0
rhumerus 21.3366 27.5664 -66.0922
rradius 70.3858
rwrist 13.8758
rhand 2.71814 15.3484
rfingers 7.12502
rthumb 28.1912 -12.5515
lclavicle 1.19271e-015 0
lhumerus 65.7779 -46.933 37.1801
lradius 40.1513
lwrist -50.4261
lhand 12.3107 44.1218
lfingers 7.12502
lthumb 37.3145 70.1043
rfemur -69.5618 -12.8933 14.9074
rtibia 74.3942
rfoot 18.8815 0.143323
rtoes 19.4749
lfemur -67.3976 2.79178 -11.7533
ltibia 73.464
lfoot 17.8981 0.872511
ltoes 18.9241
988
root 16.7272 9.87051 -6.67641 -105.264 -86.6196 84.5555
lowerback 42.3183 4.07661 -0.705576
upperback 17.3591 1.77155 -2.12859
thorax -0.662013 -0.188725 -2.49489
lowerneck -15.5719 5.57982 -13.9971
upperneck 22.4519 11.7817 -3.57445
head 9.2073 3.70066 2.3912
rclavicle -7.7526e-015 -4.37326e-014
rhumerus 21.1298 27.5583 -66.3696
rradius 70.3916
rwrist 14.1214
rhand 2.50522 15.436
rfingers 7.12502
rthumb 27.9877 -12.4974
lclavicle -7.7526e-015 -4.37326e-014
lhumerus 66.1013 -47.0117 36.9503
lradius 39.9207
lwrist -50.5781
lhand 12.0132 44.947
lfingers 7.12502
lthumb 37.0332 71.0028
rfemur -69.619 -12.8577 14.9709
rtibia 74.41
rfoot 19.0858 0.098963
rtoes 20.4948
lfemur -67.4272 2.61554 -11.5866
ltibia 73.4097
lfoot 17.3913 0.972301
ltoes 17.3466
